<?xml version="1.0" standalone="no"?>
<!DOCTYPE svg PUBLIC "-//W3C//DTD SVG 20010904//EN"
 "http://www.w3.org/TR/2001/REC-SVG-20010904/DTD/svg10.dtd">
<svg version="1.0" xmlns="http://www.w3.org/2000/svg"
 width="96.000000pt" height="96.000000pt" viewBox="0 0 96.000000 96.000000"
 preserveAspectRatio="xMidYMid meet">

<g transform="translate(0.000000,96.000000) scale(0.100000,-0.100000)"
fill="#000000" stroke="none">
<path d="M387 870 c-113 -29 -211 -109 -264 -218 -36 -72 -38 -81 -38 -171 0
-87 3 -102 32 -163 84 -179 277 -273 459 -224 146 39 251 144 290 291 64 236
-116 479 -362 490 -44 3 -96 0 -117 -5z m288 -390 l0 -25 -193 -3 c-165 -2
-193 0 -198 13 -4 8 -4 22 0 30 5 13 33 15 198 13 l193 -3 0 -25z"/>
</g>
</svg>
